<svg t="1696836980395" class="icon" viewBox="0 0 1137 1024" version="1.1" xmlns="http://www.w3.org/2000/svg" p-id="2364" width="200" height="200"><path d="M896.227556 577.991111c-21.048889 0-38.115556 16.952889-38.115556 38.058667v280.007111c0 28.103111-22.755556 50.801778-50.858667 50.801778H728.177778v-131.242667a127.317333 127.317333 0 0 0-127.146667-127.032889H538.168889a127.317333 127.317333 0 0 0-127.089778 127.032889v131.128889H331.776a50.801778 50.801778 0 0 1-50.801778-50.801778v-279.893333a38.115556 38.115556 0 1 0-76.288 0v280.007111a127.317333 127.317333 0 0 0 127.089778 127.032889h155.363556v-207.473778c0-28.046222 22.755556-50.801778 50.858666-50.801778h62.919111c28.103111 0 50.858667 22.755556 50.858667 50.801778v207.36h155.477333a127.317333 127.317333 0 0 0 127.146667-127.032889v-279.893333c0-21.048889-17.066667-38.115556-38.115556-38.115556z" fill="#EA512E" p-id="2365"></path><path d="M1073.208889 413.411556a38.115556 38.115556 0 0 0-22.755556 72.817777 15.36 15.36 0 0 1 2.503111 28.16 15.530667 15.530667 0 0 1-21.845333-9.272889 41.528889 41.528889 0 0 0-4.039111-8.988444l-172.259556-398.677333-0.170666-0.398223a15.473778 15.473778 0 0 1 0.682666-11.662222 15.530667 15.530667 0 0 1 8.760889-7.907555 15.530667 15.530667 0 0 1 11.662223 0.625777 15.36 15.36 0 0 1 5.688888 22.983112 38.115556 38.115556 0 0 0 61.212445 45.511111 91.022222 91.022222 0 0 0 12.856889-84.878223 90.624 90.624 0 0 0-46.819556-52.224A91.192889 91.192889 0 0 0 838.656 5.688889a90.680889 90.680889 0 0 0-52.280889 46.762667 92.728889 92.728889 0 0 0-8.590222 30.890666H359.765333A91.932444 91.932444 0 0 0 298.894222 5.688889a91.192889 91.192889 0 0 0-70.087111 3.811555 91.704889 91.704889 0 0 0-33.962667 137.102223 38.115556 38.115556 0 1 0 61.212445-45.511111 15.36 15.36 0 1 1 26.794667-3.982223l-0.113778 0.341334L110.592 496.071111a44.487111 44.487111 0 0 0-4.039111 8.988445 15.303111 15.303111 0 0 1-10.24 10.296888 15.815111 15.815111 0 0 1-11.662222-1.024 15.36 15.36 0 0 1 2.56-28.216888 38.229333 38.229333 0 0 0 25.031111-47.786667 38.286222 38.286222 0 0 0-47.786667-24.974222 91.591111 91.591111 0 0 0-15.018667 168.448 90.680889 90.680889 0 0 0 69.802667 6.257777c23.893333-7.509333 43.349333-24.177778 54.442667-46.136888h790.414222a91.704889 91.704889 0 0 0 169.244444-13.824 91.818667 91.818667 0 0 0-60.131555-114.744889z m-866.474667 52.451555L339.057778 159.573333h459.434666l132.323556 306.289778H206.734222z" fill="#EA512E" p-id="2366"></path></svg>
